<svg xmlns="http://www.w3.org/2000/svg" xmlns:xlink="http://www.w3.org/1999/xlink" viewBox="0 0 750 500" style="enable-background:new 0 0 750 500" xml:space="preserve"><path style="fill:#eec5b9" d="M0 0h750v500H0z"/><defs><path id="a" d="M0 0h750v500H0z"/></defs><clipPath id="b"><use xlink:href="#a" style="overflow:visible"/></clipPath><path style="opacity:.1;clip-path:url(#b);fill:#f9f9f9" d="M792.358 97.295c-68.698-16.432-138.526 16.792-201.086 49.588s-131.385 67.195-200.61 53.153c-37.696-7.646-70.991-29.061-107.034-42.492-49.816-18.564-104.358-21.565-157.258-16.286-52.9 5.279-104.632 18.554-156.121 31.785-.385.77-2.234 3.037-2.619 3.807v59.027c271.936 0 544.935 11.14 816.826 16.093l7.902-154.675z"/><path style="opacity:.1;clip-path:url(#b);fill:#f9f9f9" d="m800.34 147.088-44.1-13.749c-25.83-8.053-51.739-16.126-78.365-20.933-70.419-12.713-144.852-1.606-208.699 30.703-49.723 25.161-94.246 63.113-148.766 74.645 1.763 0-.83 3.69.933 3.69h460.331l18.666-74.356zm-497.044 73.69c-49.804-12.326-93.692-41.108-140.673-61.726C85.922 125.39-.271 113.685-83.171 125.671c-.274 1.681.306 3.657.032 5.338v96.543l386.435-6.774z"/><g style="clip-path:url(#b)"><path style="fill:#edae9b" d="M-118.529 189.418-15.3 145.087c4.865-2.089 11.563-2.16 16.563-.175l102.165 40.555c5.155 2.046 12.09 1.902 16.963-.354l11.357-5.256c4.977-2.303 12.087-2.4 17.254-.235l50.937 21.339c4.84 2.028 11.43 2.084 16.376.139l10.422-4.097c4.907-1.929 11.438-1.89 16.273.096l9.316 3.828c4.96 2.038 11.688 2.021 16.615-.042l82.576-34.584c5.053-2.116 11.979-2.075 16.952.101l18.066 7.903c5.588 2.445 13.522 2.161 18.519-.663 5.021-2.837 13.001-3.109 18.589-.633l41 18.171c5.172 2.292 12.465 2.249 17.552-.102l21.779-10.069c4.81-2.223 11.634-2.396 16.775-.423l13.636 5.232c4.867 1.868 11.279 1.822 16.062-.115l102.789-41.618c3.862-1.564 8.861-1.917 13.286-.94l87.364 19.292c4.526.999 9.645.605 13.532-1.042l46.041-19.512c5.035-2.134 11.968-2.113 16.963.051l33.344 14.444c3.465 1.501 5.497 3.828 5.497 6.295v175.155c0 4.381-6.285 7.932-14.037 7.932h-965.261c-7.753 0-14.037-3.551-14.037-7.932V195.733c0-2.479 2.051-4.815 5.543-6.315z"/><path style="fill:#e89aa3" d="m-26.17 220.464 63.201-28.01a53.695 53.695 0 0 1 35.813-2.733l77.366 20.981a53.708 53.708 0 0 0 24.884.769l6.335-1.304a53.7 53.7 0 0 1 24.413.644l88.596 23.165a53.707 53.707 0 0 0 29.603-.698l54.982-17.183a53.698 53.698 0 0 1 30.771-.379 53.705 53.705 0 0 0 32.896-1.092l7.296-2.619a53.698 53.698 0 0 1 24.979-2.721l147.586 18.942a53.704 53.704 0 0 0 21.512-1.607l113.341-32.201v192.229c0 29.658-24.042 53.7-53.7 53.7H27.53c-29.658 0-53.7-24.042-53.7-53.7V220.464z"/><path style="fill:#af8cad" d="M-26.17 348.007c0-19.17 14.09-35.426 33.066-38.148l140.06-50.88a36.826 36.826 0 0 1 22.488-.853l90.315 25.253c.694-.131 61.31-16.748 62.01-16.84l65.973-16.662a38.447 38.447 0 0 1 5.041-.331h17.134c3.657 0 7.295.521 10.805 1.546l95.568 27.914a38.53 38.53 0 0 0 21.061.156l63.654-17.573a38.499 38.499 0 0 0 8.099-3.262l57.274-31.024a38.538 38.538 0 0 1 18.356-4.652h4.748c4.492 0 8.949-.785 13.171-2.32l8.909-3.24a38.54 38.54 0 0 1 32.113 2.656l20.587 11.619v116.642c0 21.285-17.255 38.539-38.539 38.539H12.369c-21.284-.001-38.539-17.256-38.539-38.54z"/><path style="fill:#9e81a8" d="m-36.423 258.831 60.357-20.337a37.815 37.815 0 0 0 4.609-1.9l17.754-8.733a37.765 37.765 0 0 1 16.665-3.877h9.615a37.761 37.761 0 0 1 23.887 8.516l60.264 49.23 85.026 63.998a37.754 37.754 0 0 0 16.925 7.145l58.457 9.057a37.8 37.8 0 0 0 5.781.445h61.341c6.19 0 12.285-1.522 17.748-4.431l98.655-52.538a37.782 37.782 0 0 1 3.164-1.501l28.359-11.875a37.756 37.756 0 0 1 18.402-2.737l31.471 3.199a37.76 37.76 0 0 1 12.873 3.696l50.47 24.875a37.761 37.761 0 0 0 27.171 2.407l18.517-5.35a37.755 37.755 0 0 1 24.109 1.063l8.801 3.407a37.758 37.758 0 0 0 20.908 1.838l45.035-8.846v84.628H1.334c-20.853 0-37.757-16.905-37.757-37.757V258.831z"/><path style="fill:#84617e" d="m-59.242 389.889 115.55-36.232a18.344 18.344 0 0 0 3.582-1.559l41.077-23.358a18.36 18.36 0 0 1 16.375-.886l49.471 21.437c1.215.527 2.484.92 3.784 1.174l199.725 38.974c1.53.299 3.091.401 4.647.305l76.593-4.727a18.365 18.365 0 0 0 3.322-.513l109.13-27.283c.458-.114.92-.211 1.385-.29l52.782-8.946a18.369 18.369 0 0 0 9.185-4.428l69.055-61.88a18.352 18.352 0 0 1 8.365-4.27l54.96-11.908V456.31H-59.242v-66.421z"/><path style="fill:#281f32" d="m680.525 382.073-10.531 3.159a38.515 38.515 0 0 1-27.555-2.083l-14.791-7.006a38.514 38.514 0 0 0-29.621-1.399l-55.386 20.091a38.496 38.496 0 0 1-12.171 2.296l-78.975 1.974c-3.069.077-6.117.52-9.081 1.32l-120.913 32.66a38.54 38.54 0 0 1-10.043 1.333h-59.953a38.514 38.514 0 0 1-15.913-3.441l-69.533-31.547a38.556 38.556 0 0 0-7.804-2.578l-84.247-18.146a38.514 38.514 0 0 0-18.033.437l-69.67 18.579V502H776.39v-91.183l-70.747-27.715a38.527 38.527 0 0 0-25.118-1.029z"/></g><circle transform="rotate(-45.001 570.783 90.052)" style="clip-path:url(#b);fill:#f9f9f9" cx="570.781" cy="90.045" r="26.217"/><g style="clip-path:url(#b)"><path style="fill:#281f32" d="M281.064 191.644s1.658 4.544 10.691 6.57l5.096 2.85 3.179-.414-2.525-2.431s5.471-2.627 8.376-5.711l5.27-1.884s-8.768 1.287-13.214 4.924l-3.125 1.605-8.422-2.075c.001.001-3.796-1.933-5.326-3.434zM14.952 80.85s1.379 3.779 8.892 5.464l4.239 2.371 2.644-.344-2.1-2.022s4.551-2.185 6.966-4.75l4.383-1.567s-7.292 1.071-10.991 4.096l-2.599 1.335-7.004-1.726c.001 0-3.157-1.608-4.43-2.857zm176.763 94.487s2.11 7.093 15.716 11.023l7.518 4.825 4.893-.337-3.63-3.947s8.598-3.504 13.319-7.945l8.222-2.389s-13.507 1.153-20.635 6.295l-4.921 2.162-12.667-3.949c.001 0-5.618-3.304-7.815-5.738zm36.594-32.595s1.302 4.345 9.647 6.739l4.614 2.949 2.999-.212-2.23-2.415s5.267-2.158 8.155-4.886l5.037-1.474s-8.279.723-12.642 3.883l-3.014 1.331-7.77-2.406c.002 0-3.446-2.019-4.796-3.509zm-85.452 47.649s.733 2.446 5.43 3.793l2.597 1.66 1.688-.12-1.255-1.359s2.964-1.215 4.59-2.75l2.835-.83s-4.66.407-7.116 2.186l-1.697.749-4.373-1.354c.001 0-1.94-1.137-2.699-1.975zm201.06-17.78s.733 2.446 5.43 3.793l2.597 1.66 1.688-.12-1.255-1.359s2.964-1.215 4.59-2.75l2.835-.829s-4.66.407-7.116 2.186l-1.696.749-4.373-1.354c.001-.002-1.94-1.138-2.7-1.976zm-147.002-19.323-3.138.522-10.112.757 4.185 1.138-3.022 1.138-6.393-1.695-7.205-.581-5.347.581 5.11-1.038 7.002.221 2.07-.749 6.958.228zm188.563 83.486-4.017.668-12.943.969 5.356 1.457-3.868 1.456-8.182-2.169-9.224-.744-6.843.744 6.54-1.328 8.963.282 2.65-.959 8.907.292zm-74.326-116.688-2.359.392-7.598.568 3.144.856-2.271.855-4.804-1.274-5.415-.437-4.018.437 3.84-.78 5.262.166 1.556-.563 5.229.172zm-88.161-5.433-1.67.277-5.381.403 2.227.606-1.608.605-3.402-.902-3.834-.309-2.845.309 2.718-.552 3.727.117 1.101-.398 3.703.121zm84.151 52.515-4.016.668-12.943.968 5.355 1.457-3.868 1.457-8.182-2.17-9.223-.744-6.844.744 6.54-1.328 8.963.282 2.65-.958 8.907.292zm-204.793-62.997-4.017.668-12.943.968 5.356 1.457-3.868 1.457-8.182-2.17-9.224-.744-6.843.744 6.54-1.328 8.963.282 2.649-.958 8.907.292zm7.676 32.029 10.841 2.239 11.029 5.076 1.711 2.022 2.387-.269.331-2.351 7.367-6.428 9.833-1.431-10.707.133-7.788 4.421-3.857.282-9.429-2.677z"/></g></svg>